<svg width="24" height="25" viewBox="0 0 24 25" fill="none" xmlns="http://www.w3.org/2000/svg">
<g clip-path="url(#clip0_3_4031)">
<path d="M12.001 17.3319C11.6425 17.332 11.2875 17.2614 10.9563 17.1241C10.6251 16.9868 10.3243 16.7856 10.071 16.5319L3.55099 10.0089C3.42122 9.8662 3.35139 9.67905 3.35599 9.48627C3.36059 9.29348 3.43927 9.10987 3.57569 8.97358C3.71212 8.83728 3.8958 8.75877 4.08859 8.75436C4.28138 8.74994 4.46846 8.81995 4.61099 8.94985L11.133 15.4689C11.3638 15.6994 11.6767 15.829 12.003 15.829C12.3293 15.829 12.6422 15.6994 12.873 15.4689L19.393 8.94885C19.5352 8.81637 19.7232 8.74425 19.9175 8.74768C20.1118 8.7511 20.2972 8.82982 20.4346 8.96723C20.572 9.10464 20.6507 9.29003 20.6542 9.48433C20.6576 9.67863 20.5855 9.86668 20.453 10.0089L13.933 16.5319C13.6795 16.7858 13.3783 16.9872 13.0467 17.1245C12.7152 17.2618 12.3598 17.3322 12.001 17.3319Z" fill="#0B032D"/>
</g>
<defs>
<clipPath id="clip0_3_4031">
<rect width="24" height="24" fill="white" transform="translate(0 0.528809)"/>
</clipPath>
</defs>
</svg>
