<svg width="24" height="25" viewBox="0 0 24 25" fill="none" xmlns="http://www.w3.org/2000/svg">
<g clip-path="url(#clip0_3_4026)">
<path d="M15 21.1988C14.9015 21.1992 14.8039 21.1799 14.7129 21.1421C14.6219 21.1044 14.5393 21.0489 14.47 20.9788L7.94999 14.4618C7.4407 13.9486 7.15491 13.2549 7.15491 12.5318C7.15491 11.8088 7.4407 11.1151 7.94999 10.6018L14.47 4.07983C14.6122 3.94735 14.8002 3.87523 14.9945 3.87866C15.1888 3.88209 15.3742 3.9608 15.5116 4.09821C15.649 4.23562 15.7277 4.42101 15.7312 4.61531C15.7346 4.80961 15.6625 4.99766 15.53 5.13983L9.00999 11.6618C8.77941 11.8927 8.64989 12.2056 8.64989 12.5318C8.64989 12.8581 8.77941 13.171 9.00999 13.4018L15.53 19.9218C15.6695 20.063 15.7477 20.2534 15.7477 20.4518C15.7477 20.6503 15.6695 20.8407 15.53 20.9818C15.3869 21.1182 15.1977 21.1957 15 21.1988Z" fill="#0B032D"/>
</g>
<defs>
<clipPath id="clip0_3_4026">
<rect width="24" height="24" fill="white" transform="translate(0 0.528809)"/>
</clipPath>
</defs>
</svg>
