<svg width="24" height="25" viewBox="0 0 24 25" fill="none" xmlns="http://www.w3.org/2000/svg">
<g clip-path="url(#clip0_3_4634)">
<path d="M7.18999 2.5289H9.78999C10.487 2.47345 11.1877 2.56991 11.8437 2.81163C12.4998 3.05334 13.0956 3.43455 13.59 3.92894C14.0843 4.42333 14.4655 5.01911 14.7073 5.67517C14.949 6.33123 15.0454 7.03193 14.99 7.7289V11.7789H10.55L12.62 9.7089C12.6898 9.6394 12.7451 9.55681 12.7829 9.46585C12.8207 9.3749 12.8402 9.27739 12.8402 9.1789C12.8402 9.08041 12.8207 8.98289 12.7829 8.89194C12.7451 8.80099 12.6898 8.7184 12.62 8.6489C12.4789 8.50942 12.2884 8.4312 12.09 8.4312C11.8916 8.4312 11.7011 8.50942 11.56 8.6489L8.20999 11.9989C8.07051 12.14 7.99229 12.3305 7.99229 12.5289C7.99229 12.7273 8.07051 12.9178 8.20999 13.0589L11.56 16.4089C11.7022 16.5414 11.8902 16.6135 12.0845 16.6101C12.2788 16.6066 12.4642 16.5279 12.6016 16.3905C12.739 16.2531 12.8177 16.0677 12.8212 15.8734C12.8246 15.6791 12.7525 15.4911 12.62 15.3489L10.55 13.2789H14.99V17.3289C15.0454 18.0259 14.949 18.7266 14.7073 19.3826C14.4655 20.0387 14.0843 20.6345 13.59 21.1289C13.0956 21.6232 12.4998 22.0045 11.8437 22.2462C11.1877 22.4879 10.487 22.5843 9.78999 22.5289H7.19999C6.50302 22.5843 5.80232 22.4879 5.14626 22.2462C4.49021 22.0045 3.89442 21.6232 3.40003 21.1289C2.90564 20.6345 2.52443 20.0387 2.28272 19.3826C2.041 18.7266 1.94454 18.0259 1.99999 17.3289V7.7289C1.94247 7.03233 2.03716 6.33158 2.2775 5.67525C2.51784 5.01893 2.89807 4.42274 3.39182 3.92804C3.88557 3.43334 4.48102 3.05196 5.13688 2.81036C5.79274 2.56876 6.49331 2.47272 7.18999 2.5289Z" fill="#0B032D"/>
<path d="M21.24 11.7789C21.4385 11.7802 21.6285 11.8597 21.7689 12C21.9092 12.1404 21.9887 12.3304 21.99 12.5289C21.9887 12.7274 21.9092 12.9174 21.7689 13.0578C21.6285 13.1982 21.4385 13.2776 21.24 13.2789H14.99V11.7789H21.24Z" fill="#0B032D"/>
</g>
<defs>
<clipPath id="clip0_3_4634">
<rect width="24" height="24" fill="white" transform="translate(0 0.528931)"/>
</clipPath>
</defs>
</svg>
