<svg width="0" height="0" class="hidden">
  <symbol fill="none" xmlns="http://www.w3.org/2000/svg" viewBox="0 0 24 25" id="arrow-down-1">
    <g clip-path="url(#clip0_3_4031)">
      <path d="M12.001 17.3319C11.6425 17.332 11.2875 17.2614 10.9563 17.1241C10.6251 16.9868 10.3243 16.7856 10.071 16.5319L3.55099 10.0089C3.42122 9.8662 3.35139 9.67905 3.35599 9.48627C3.36059 9.29348 3.43927 9.10987 3.57569 8.97358C3.71212 8.83728 3.8958 8.75877 4.08859 8.75436C4.28138 8.74994 4.46846 8.81995 4.61099 8.94985L11.133 15.4689C11.3638 15.6994 11.6767 15.829 12.003 15.829C12.3293 15.829 12.6422 15.6994 12.873 15.4689L19.393 8.94885C19.5352 8.81637 19.7232 8.74425 19.9175 8.74768C20.1118 8.7511 20.2972 8.82982 20.4346 8.96723C20.572 9.10464 20.6507 9.29003 20.6542 9.48433C20.6576 9.67863 20.5855 9.86668 20.453 10.0089L13.933 16.5319C13.6795 16.7858 13.3783 16.9872 13.0467 17.1245C12.7152 17.2618 12.3598 17.3322 12.001 17.3319Z" fill="#0B032D"></path>
    </g>
    <defs>
      <clipPath id="clip0_3_4031">
        <rect width="24" height="24" fill="white" transform="translate(0 0.528809)"></rect>
      </clipPath>
    </defs>
  </symbol>
  <symbol fill="none" xmlns="http://www.w3.org/2000/svg" viewBox="0 0 24 25" id="arrow-left-1">
    <g clip-path="url(#clip0_3_4026)">
      <path d="M15 21.1988C14.9015 21.1992 14.8039 21.1799 14.7129 21.1421C14.6219 21.1044 14.5393 21.0489 14.47 20.9788L7.94999 14.4618C7.4407 13.9486 7.15491 13.2549 7.15491 12.5318C7.15491 11.8088 7.4407 11.1151 7.94999 10.6018L14.47 4.07983C14.6122 3.94735 14.8002 3.87523 14.9945 3.87866C15.1888 3.88209 15.3742 3.9608 15.5116 4.09821C15.649 4.23562 15.7277 4.42101 15.7312 4.61531C15.7346 4.80961 15.6625 4.99766 15.53 5.13983L9.00999 11.6618C8.77941 11.8927 8.64989 12.2056 8.64989 12.5318C8.64989 12.8581 8.77941 13.171 9.00999 13.4018L15.53 19.9218C15.6695 20.063 15.7477 20.2534 15.7477 20.4518C15.7477 20.6503 15.6695 20.8407 15.53 20.9818C15.3869 21.1182 15.1977 21.1957 15 21.1988Z" fill="#0B032D"></path>
    </g>
    <defs>
      <clipPath id="clip0_3_4026">
        <rect width="24" height="24" fill="white" transform="translate(0 0.528809)"></rect>
      </clipPath>
    </defs>
  </symbol>
  <symbol fill="none" xmlns="http://www.w3.org/2000/svg" viewBox="0 0 24 25" id="bookmark">
    <g clip-path="url(#clip0_3_4005)">
      <path d="M4.93 23.2788C4.52365 23.2828 4.12347 23.1793 3.77 22.9788C3.36644 22.7075 3.04191 22.3343 2.82938 21.8969C2.61685 21.4595 2.52391 20.9737 2.56 20.4888V6.38881C2.56211 5.16681 3.04848 3.99547 3.91257 3.13138C4.77665 2.2673 5.948 1.78092 7.17 1.77881L16.82 1.77881C18.042 1.78092 19.2133 2.2673 20.0774 3.13138C20.9415 3.99547 21.4279 5.16681 21.43 6.38881V20.4788C21.4661 20.9637 21.3731 21.4495 21.1606 21.8869C20.9481 22.3243 20.6235 22.6975 20.22 22.9688C19.7858 23.1892 19.3011 23.2914 18.8149 23.2651C18.3286 23.2388 17.8579 23.0848 17.45 22.8188L12.57 20.1088C12.3886 20.0297 12.1929 19.9888 11.995 19.9888C11.7971 19.9888 11.6014 20.0297 11.42 20.1088L6.54 22.8188C6.05094 23.106 5.49695 23.2643 4.93 23.2788ZM7.18 3.27881C6.35598 3.28145 5.56647 3.60995 4.98381 4.19262C4.40114 4.77529 4.07263 5.5648 4.07 6.38881V20.4788C4.04031 20.7023 4.06786 20.9296 4.15007 21.1395C4.23228 21.3494 4.36645 21.535 4.54 21.6788C4.75057 21.7597 4.97804 21.7865 5.20164 21.7568C5.42524 21.7271 5.63783 21.6418 5.82 21.5088L10.7 18.7988C11.1035 18.5965 11.5486 18.4911 12 18.4911C12.4514 18.4911 12.8965 18.5965 13.3 18.7988L18.18 21.5088C18.3611 21.6441 18.5738 21.7308 18.7978 21.7606C19.0219 21.7903 19.2499 21.7622 19.46 21.6788C19.6318 21.5335 19.7647 21.3478 19.8468 21.1383C19.9288 20.9288 19.9574 20.7021 19.93 20.4788V6.38881C19.9274 5.5648 19.5989 4.77529 19.0162 4.19262C18.4335 3.60995 17.644 3.28145 16.82 3.27881H7.18Z" fill="#0B032D"></path>
    </g>
    <defs>
      <clipPath id="clip0_3_4005">
        <rect width="24" height="24" fill="white" transform="translate(0 0.528809)"></rect>
      </clipPath>
    </defs>
  </symbol>
  <symbol fill="none" xmlns="http://www.w3.org/2000/svg" viewBox="0 0 24 25" id="category">
    <g clip-path="url(#clip0_3_5415)">
      <path d="M18.67 2.52906H16.77C16.319 2.47129 15.8607 2.51764 15.4303 2.66456C15 2.81148 14.6091 3.05506 14.2875 3.37659C13.966 3.69813 13.7224 4.08908 13.5755 4.51941C13.4286 4.94975 13.3822 5.40803 13.44 5.85906V7.75906C13.3822 8.2101 13.4286 8.66838 13.5755 9.09871C13.7224 9.52905 13.966 9.91999 14.2875 10.2415C14.6091 10.5631 15 10.8066 15.4303 10.9536C15.8607 11.1005 16.319 11.1468 16.77 11.0891H18.67C19.121 11.1468 19.5793 11.1005 20.0096 10.9536C20.44 10.8066 20.8309 10.5631 21.1525 10.2415C21.474 9.91999 21.7176 9.52905 21.8645 9.09871C22.0114 8.66838 22.0578 8.2101 22 7.75906V5.85906C22.0578 5.40803 22.0114 4.94975 21.8645 4.51941C21.7176 4.08908 21.474 3.69813 21.1525 3.37659C20.8309 3.05506 20.44 2.81148 20.0096 2.66456C19.5793 2.51764 19.121 2.47129 18.67 2.52906Z" fill="#C4C2CC"></path>
      <path d="M7.24 13.959H5.34C4.88831 13.9002 4.42914 13.9457 3.99781 14.0921C3.56647 14.2385 3.17444 14.4818 2.85187 14.8035C2.5293 15.1251 2.28477 15.5164 2.13709 15.9473C1.98941 16.3782 1.94251 16.8372 2 17.289V19.189C1.94116 19.6407 1.98668 20.0999 2.13307 20.5312C2.27945 20.9626 2.5228 21.3546 2.84441 21.6772C3.16602 21.9997 3.55731 22.2443 3.98821 22.3919C4.41911 22.5396 4.87814 22.5865 5.33 22.529H7.23C7.68103 22.5868 8.13931 22.5405 8.56965 22.3935C8.99998 22.2466 9.39093 22.003 9.71247 21.6815C10.034 21.36 10.2776 20.969 10.4245 20.5387C10.5714 20.1084 10.6178 19.6501 10.56 19.199V17.299C10.6208 16.8479 10.5769 16.3887 10.4319 15.9572C10.2869 15.5257 10.0445 15.1333 9.72355 14.8104C9.40261 14.4875 9.01168 14.2428 8.58103 14.0952C8.15038 13.9476 7.69153 13.901 7.24 13.959Z" fill="#C4C2CC"></path>
      <path d="M10.58 6.81905C10.58 7.66753 10.3284 8.49696 9.85701 9.20245C9.38562 9.90794 8.71561 10.4578 7.93171 10.7825C7.14782 11.1072 6.28524 11.1922 5.45306 11.0266C4.62089 10.8611 3.85648 10.4525 3.25651 9.85254C2.65655 9.25257 2.24796 8.48817 2.08243 7.65599C1.9169 6.82381 2.00186 5.96124 2.32656 5.17734C2.65126 4.39345 3.20112 3.72344 3.90661 3.25205C4.61209 2.78066 5.44152 2.52905 6.29 2.52905C7.42778 2.52905 8.51896 2.98103 9.32349 3.78556C10.128 4.5901 10.58 5.68127 10.58 6.81905Z" fill="#0B032D"></path>
      <path d="M22 18.239C22 19.0875 21.7484 19.9169 21.277 20.6224C20.8056 21.3279 20.1356 21.8778 19.3517 22.2025C18.5678 22.5272 17.7052 22.6121 16.8731 22.4466C16.0409 22.2811 15.2765 21.8725 14.6765 21.2725C14.0765 20.6726 13.668 19.9082 13.5024 19.076C13.3369 18.2438 13.4219 17.3812 13.7466 16.5973C14.0713 15.8134 14.6211 15.1434 15.3266 14.672C16.0321 14.2006 16.8615 13.949 17.71 13.949C18.8478 13.949 19.939 14.401 20.7435 15.2055C21.548 16.0101 22 17.1013 22 18.239Z" fill="#0B032D"></path>
    </g>
    <defs>
      <clipPath id="clip0_3_5415">
        <rect width="24" height="24" fill="white" transform="translate(0 0.529053)"></rect>
      </clipPath>
    </defs>
  </symbol>
  <symbol fill="none" xmlns="http://www.w3.org/2000/svg" viewBox="0 0 24 25" id="clock">
    <g clip-path="url(#clip0_3_5434)">
      <path d="M22 12.5291C22 14.5069 21.4135 16.4403 20.3147 18.0848C19.2159 19.7292 17.6541 21.011 15.8268 21.7678C13.9996 22.5247 11.9889 22.7228 10.0491 22.3369C8.10929 21.9511 6.32746 20.9986 4.92894 19.6001C3.53041 18.2016 2.578 16.4198 2.19215 14.48C1.8063 12.5401 2.00433 10.5295 2.76121 8.70222C3.51809 6.87496 4.79981 5.31317 6.4443 4.21436C8.08879 3.11554 10.0222 2.52905 12 2.52905C14.6522 2.52905 17.1957 3.58262 19.0711 5.45798C20.9464 7.33335 22 9.87689 22 12.5291Z" fill="#C4C2CC"></path>
      <path d="M15.71 16.4591C15.5751 16.4615 15.4427 16.4231 15.33 16.3491L12.23 14.4991C11.834 14.2417 11.5056 13.8931 11.2724 13.4824C11.0392 13.0717 10.9081 12.611 10.89 12.1391V8.03906C10.8913 7.84055 10.9707 7.65055 11.1111 7.51018C11.2515 7.36981 11.4415 7.29037 11.64 7.28906C11.8385 7.29037 12.0285 7.36981 12.1689 7.51018C12.3093 7.65055 12.3887 7.84055 12.39 8.03906V12.1391C12.4088 12.3508 12.473 12.556 12.5782 12.7406C12.6835 12.9253 12.8274 13.0851 13 13.2091L16.1 15.0591C16.1849 15.1094 16.259 15.1761 16.3181 15.2552C16.3772 15.3343 16.42 15.4243 16.4442 15.52C16.4684 15.6157 16.4734 15.7153 16.4589 15.8129C16.4445 15.9106 16.4108 16.0044 16.36 16.0891C16.292 16.2009 16.1967 16.2935 16.0829 16.3583C15.9692 16.423 15.8409 16.4577 15.71 16.4591Z" fill="#0B032D"></path>
    </g>
    <defs>
      <clipPath id="clip0_3_5434">
        <rect width="24" height="24" fill="white" transform="translate(0 0.529053)"></rect>
      </clipPath>
    </defs>
  </symbol>
  <symbol fill="none" xmlns="http://www.w3.org/2000/svg" viewBox="0 0 24 25" id="login">
    <g clip-path="url(#clip0_3_4634)">
      <path d="M7.18999 2.5289H9.78999C10.487 2.47345 11.1877 2.56991 11.8437 2.81163C12.4998 3.05334 13.0956 3.43455 13.59 3.92894C14.0843 4.42333 14.4655 5.01911 14.7073 5.67517C14.949 6.33123 15.0454 7.03193 14.99 7.7289V11.7789H10.55L12.62 9.7089C12.6898 9.6394 12.7451 9.55681 12.7829 9.46585C12.8207 9.3749 12.8402 9.27739 12.8402 9.1789C12.8402 9.08041 12.8207 8.98289 12.7829 8.89194C12.7451 8.80099 12.6898 8.7184 12.62 8.6489C12.4789 8.50942 12.2884 8.4312 12.09 8.4312C11.8916 8.4312 11.7011 8.50942 11.56 8.6489L8.20999 11.9989C8.07051 12.14 7.99229 12.3305 7.99229 12.5289C7.99229 12.7273 8.07051 12.9178 8.20999 13.0589L11.56 16.4089C11.7022 16.5414 11.8902 16.6135 12.0845 16.6101C12.2788 16.6066 12.4642 16.5279 12.6016 16.3905C12.739 16.2531 12.8177 16.0677 12.8212 15.8734C12.8246 15.6791 12.7525 15.4911 12.62 15.3489L10.55 13.2789H14.99V17.3289C15.0454 18.0259 14.949 18.7266 14.7073 19.3826C14.4655 20.0387 14.0843 20.6345 13.59 21.1289C13.0956 21.6232 12.4998 22.0045 11.8437 22.2462C11.1877 22.4879 10.487 22.5843 9.78999 22.5289H7.19999C6.50302 22.5843 5.80232 22.4879 5.14626 22.2462C4.49021 22.0045 3.89442 21.6232 3.40003 21.1289C2.90564 20.6345 2.52443 20.0387 2.28272 19.3826C2.041 18.7266 1.94454 18.0259 1.99999 17.3289V7.7289C1.94247 7.03233 2.03716 6.33158 2.2775 5.67525C2.51784 5.01893 2.89807 4.42274 3.39182 3.92804C3.88557 3.43334 4.48102 3.05196 5.13688 2.81036C5.79274 2.56876 6.49331 2.47272 7.18999 2.5289Z" fill="#FFFFFF"></path>
      <path d="M21.24 11.7789C21.4385 11.7802 21.6285 11.8597 21.7689 12C21.9092 12.1404 21.9887 12.3304 21.99 12.5289C21.9887 12.7274 21.9092 12.9174 21.7689 13.0578C21.6285 13.1982 21.4385 13.2776 21.24 13.2789H14.99V11.7789H21.24Z" fill="#FFFFFF"></path>
    </g>
    <defs>
      <clipPath id="clip0_3_4634">
        <rect width="24" height="24" fill="white" transform="translate(0 0.528931)"></rect>
      </clipPath>
    </defs>
  </symbol>
  <symbol fill="none" xmlns="http://www.w3.org/2000/svg" viewBox="0 0 100 43" id="Logo">
    <path d="M72.3545 8.22918L89.7039 4.45217C95.4901 3.66022 99.8189 8.96137 99.8189 14.5223V31.7867C99.8125 34.4632 98.7433 37.0277 96.8465 38.9161C94.9497 40.8045 92.3805 41.8623 89.7039 41.8568H72.3545C69.6779 41.8623 67.1088 40.8045 65.2119 38.9161C63.3151 37.0277 62.246 34.4632 62.2396 31.7867V18.2993C62.2396 12.7372 66.7407 9.44068 72.3545 8.22918Z" fill="#FCBF17"></path>
    <path d="M40.4795 41.7132H29.4277C29.1829 41.735 28.9358 41.7684 28.7013 41.7798C27.5668 41.835 26.4726 41.6247 26.5404 40.2258C26.599 38.9523 27.645 38.7948 28.7013 38.8465C28.9484 38.8603 29.1932 38.8936 29.4277 38.9155H40.4795C41.4753 38.7461 42.499 38.8732 43.4231 39.281C44.5013 39.9454 44.5013 40.6454 43.4231 41.3442C42.9786 41.6586 42.4417 41.8152 41.8978 41.789C41.4289 41.7925 40.953 41.7235 40.4795 41.7132ZM70.5438 40.2293C70.5932 38.7235 71.7266 38.7925 72.8139 38.8649C73.1228 38.8912 73.4329 38.8984 73.7427 38.8867H78.5438C78.7426 38.8716 78.9423 38.9008 79.1285 38.9723C79.3146 39.0438 79.4826 39.1557 79.6202 39.3C79.7578 39.4443 79.8616 39.6174 79.9241 39.8067C79.9866 39.9961 80.0063 40.1969 79.9818 40.3948C79.9785 40.5788 79.9385 40.7604 79.8641 40.9287C79.7896 41.097 79.6822 41.2488 79.5482 41.3749C79.4142 41.5011 79.2563 41.5992 79.0838 41.6634C78.9113 41.7276 78.7277 41.7567 78.5438 41.7488H73.7438C73.4373 41.7337 73.1301 41.7391 72.8243 41.7649C72.6013 41.7775 72.376 41.7902 72.1599 41.7902C71.2588 41.7913 70.5013 41.5707 70.545 40.2281L70.5438 40.2293ZM89.0967 40.8385C88.9577 40.5634 88.9239 40.2469 89.0018 39.9487C89.0797 39.6504 89.2639 39.3909 89.5197 39.2189C90.15 38.9455 90.8292 38.8026 91.5163 38.7989C92.2034 38.7951 92.8841 38.9306 93.5174 39.1971C93.7654 39.3756 93.9458 39.6328 94.0293 39.9268C94.1127 40.2208 94.0944 40.5344 93.9771 40.8166C93.699 41.5477 93.0749 41.7798 91.268 41.7695C91.1162 41.7764 90.9565 41.7844 90.7933 41.7844C90.4466 41.8268 90.0954 41.7579 89.7904 41.5877C89.4855 41.4174 89.2425 41.1558 89.0967 40.8385ZM23.2277 41.7132H2.57945C2.33463 41.735 2.08865 41.7684 1.85647 41.7684C0.785202 41.7844 -0.0596255 41.358 0.0610642 40.2166C0.217386 38.6971 1.43348 38.7638 2.5898 38.8959H23.2277C23.5897 38.8537 23.9544 38.8391 24.3185 38.8523C25.2381 38.9408 25.8783 39.4603 25.7565 40.3936C25.7488 40.598 25.698 40.7985 25.6074 40.9819C25.5167 41.1653 25.3883 41.3274 25.2306 41.4577C25.0729 41.588 24.8894 41.6834 24.6922 41.7377C24.495 41.792 24.2885 41.8041 24.0864 41.7729C23.7992 41.7703 23.5125 41.7503 23.2277 41.7132ZM44.7047 40.2189C44.7599 38.9546 45.8093 38.7879 46.8657 38.8396C47.1105 38.85 47.3576 38.8718 47.5921 38.8948H56.7967C56.9945 38.8763 57.1939 38.9029 57.3799 38.9725C57.5659 39.0422 57.7338 39.153 57.8708 39.2968C58.0079 39.4406 58.1106 39.6136 58.1712 39.8028C58.2318 39.9919 58.2488 40.1924 58.2208 40.389C58.2244 40.5723 58.1892 40.7543 58.1175 40.923C58.0457 41.0917 57.9391 41.2433 57.8046 41.3678C57.6701 41.4923 57.5107 41.587 57.337 41.6455C57.1633 41.704 56.9791 41.7252 56.7967 41.7074H47.5921C47.3484 41.7293 47.1024 41.7511 46.8657 41.7626C46.7634 41.7626 46.6622 41.7707 46.5611 41.7707C45.545 41.7764 44.6542 41.4867 44.707 40.2166L44.7047 40.2189ZM96.3047 41.7569C95.9177 41.745 95.5492 41.5881 95.2724 41.3173C94.9957 41.0464 94.8308 40.6815 94.8105 40.2948C94.8286 40.0755 94.8922 39.8624 94.9973 39.669C95.1023 39.4756 95.2464 39.3062 95.4205 39.1716C95.5946 39.037 95.7948 38.9401 96.0084 38.8871C96.222 38.8341 96.4442 38.8261 96.6611 38.8638C97.5875 38.9408 98.1783 39.4615 98.1001 40.3948C98.0953 40.5909 98.0497 40.7839 97.9663 40.9615C97.8829 41.1391 97.7635 41.2974 97.6156 41.4263C97.4677 41.5553 97.2947 41.6521 97.1074 41.7106C96.9201 41.7691 96.7227 41.7879 96.5277 41.7661C96.4542 41.7661 96.3795 41.7626 96.3047 41.7569ZM85.6151 41.7454H82.6726C82.2513 41.7768 81.8281 41.7695 81.4082 41.7235C81.2249 41.7079 81.0465 41.6562 80.8832 41.5714C80.72 41.4866 80.5751 41.3703 80.457 41.2293C80.3388 41.0883 80.2497 40.9253 80.1948 40.7498C80.1399 40.5742 80.1202 40.3895 80.1369 40.2063C80.1475 39.8666 80.2831 39.5428 80.5177 39.297C80.7523 39.0511 81.0694 38.9006 81.4082 38.8741C81.8284 38.8339 82.2512 38.8266 82.6726 38.8523H85.6151C86.0363 38.8211 86.4595 38.8284 86.8794 38.8741C87.0639 38.8881 87.2436 38.9387 87.4082 39.0232C87.5727 39.1076 87.7187 39.2241 87.8376 39.3658C87.9565 39.5075 88.0458 39.6715 88.1004 39.8482C88.1549 40.0249 88.1736 40.2108 88.1553 40.3948C88.1461 40.7334 88.0118 41.0566 87.7783 41.3019C87.5448 41.5473 87.2287 41.6975 86.8909 41.7235C86.7202 41.7534 86.547 41.7673 86.3737 41.7649C86.122 41.7649 85.8691 41.7454 85.6197 41.7454H85.6151ZM58.868 40.1488C59.0231 38.6396 60.2473 38.7063 61.3852 38.8166H68.3967C68.5939 38.8013 68.792 38.8301 68.9767 38.9007C69.1615 38.9714 69.3282 39.0823 69.4648 39.2253C69.6014 39.3683 69.7045 39.5399 69.7667 39.7276C69.8289 39.9154 69.8485 40.1146 69.8243 40.3109C69.8232 40.4941 69.7848 40.6753 69.7116 40.8432C69.6384 41.0112 69.5317 41.1626 69.3982 41.2881C69.2647 41.4137 69.1071 41.5108 68.935 41.5736C68.7628 41.6364 68.5797 41.6635 68.3967 41.6534H61.3852C61.1404 41.6638 60.8944 41.6982 60.6622 41.6982H60.6266C59.5749 41.7017 58.7622 41.2672 58.8726 40.1488H58.868ZM1.62313 31.8316C1.06208 31.4012 0.62038 30.8346 0.339992 30.1855C0.0596034 29.5363 -0.0501582 28.8263 0.0211348 28.1228C0.0924277 27.4193 0.342407 26.7458 0.747324 26.1661C1.15224 25.5864 1.69865 25.1199 2.33463 24.8109C4.10102 23.9423 6.0289 23.4511 7.99555 23.3684C10.6893 23.1251 13.4048 23.3357 16.0289 23.9913C16.7634 24.1684 17.6116 24.3235 17.3783 25.3316C17.1082 26.5201 16.1634 25.8775 15.5726 25.7442C11.8289 24.9097 8.07371 24.3787 4.2852 25.4419C2.80244 25.8534 0.973708 26.2465 0.919685 28.05C0.874857 29.6994 2.5806 30.3775 3.95072 30.8661C8.2517 32.4436 12.9505 32.572 17.3312 31.2316C19.0496 30.7109 20.8185 29.935 21.1404 27.9166C21.4553 25.9316 20.0737 24.658 18.668 23.5086C18.2898 23.1994 17.8783 22.9442 17.4634 22.6672C16.907 22.3132 16.2726 22.0925 16.4392 21.158C16.607 20.25 17.33 20.273 17.9335 20.0511C18.445 19.8603 19.0001 19.7603 19.5162 19.5603C20.8507 19.0511 22.1013 18.5258 21.8772 16.6672C21.9321 15.9405 22.1089 15.2283 22.4001 14.5603C22.5565 13.9293 22.7795 13.3615 23.5611 13.373C24.5174 13.3948 24.5059 14.2281 24.607 14.8373C24.7047 15.818 24.4906 16.8045 23.9954 17.6565C23.5001 18.5086 22.7489 19.1828 21.8484 19.5833C20.5481 20.2084 19.174 20.6668 17.7588 20.9477C18.8968 21.7159 19.93 22.6289 20.8323 23.6638C23.0852 26.5258 22.6932 29.5856 19.7875 31.8166C17.6496 33.4534 14.168 34.2707 10.6909 34.2707C7.21394 34.2707 3.74957 33.4592 1.62313 31.8316ZM55.7266 32.2557C54.9859 31.8778 54.3766 31.2848 53.9787 30.5546C53.5808 29.8245 53.4128 28.9911 53.4967 28.1638C53.5167 27.3897 53.7714 26.6399 54.2271 26.0138C54.6828 25.3878 55.3179 24.9149 56.0484 24.658C60.6634 22.7316 65.3863 22.9339 70.1208 24.1155C70.2602 24.1299 70.3948 24.1749 70.5148 24.2472C70.6348 24.3196 70.7373 24.4176 70.8151 24.5343C70.8928 24.6509 70.9438 24.7832 70.9645 24.9218C70.9852 25.0605 70.975 25.2019 70.9346 25.3362C70.7047 26.2557 69.9657 25.9109 69.4323 25.7959C66.2272 24.9182 62.8848 24.6549 59.5818 25.0201C58.1133 25.1555 56.6936 25.6173 55.4266 26.3718C54.0208 27.327 53.9553 28.3798 55.1714 29.5224C55.3087 29.646 55.4534 29.7612 55.6047 29.8672C59.3829 32.6833 69.2668 32.8293 73.0886 30.1327C75.0427 28.7592 75.3059 26.8741 73.7001 24.9442C71.7461 22.5798 69.0323 21.45 66.2116 20.5063C65.7438 20.3511 65.2772 20.2178 64.7955 20.0959C64.0944 19.9074 63.4381 19.6419 63.7174 18.7419C63.9944 17.8672 64.6519 18.2097 65.2323 18.3971C68.144 19.1631 70.8598 20.5386 73.2001 22.4327C74.1312 23.2315 74.8732 24.2271 75.3726 25.3477C75.4001 25.2258 75.4036 25.0546 75.468 25.0327C77.6519 24.1132 78.2323 22.4477 78.3668 20.1408C78.5668 16.5695 79.2864 13.0224 79.7795 9.45111C79.8818 8.71778 80.0013 8.04192 80.9507 8.19594C81.9323 8.36261 81.507 9.12928 81.43 9.66146C80.8289 13.6419 80.1277 17.6017 79.8139 21.6385C80.5519 21.6488 80.8967 21.0638 81.3082 20.6753C86.8346 15.4959 90.9243 9.4741 92.4174 1.93158C92.5519 1.22238 92.5634 0.278702 93.6542 0.577553C94.6346 0.846518 94.1346 1.72698 94.0231 2.27525C92.5174 9.37066 88.7174 15.173 83.6128 20.2178C83.0886 20.7408 82.5335 21.2166 81.7978 21.8925C83.3794 22.0798 84.9726 22.0913 85.507 23.7109C86.3001 26.1385 85.5737 28.389 84.4726 30.5661C84.6726 31.0258 85.0197 30.9844 85.3703 30.9477C85.5839 30.8986 85.8077 30.92 86.0082 31.0086C91.2116 29.8431 94.4783 26.3603 96.9737 21.958C97.3834 21.2095 97.7447 20.4355 98.0553 19.6408C98.322 18.9764 98.6116 18.2534 99.4565 18.6063C100.561 19.0488 99.6576 19.7798 99.4461 20.2442C97.2622 25.0477 94.1668 29.0178 89.0726 31.081C87.7098 31.6408 86.2567 31.9485 84.784 31.989C83.9995 31.9856 83.225 32.1651 82.522 32.5132C82.1665 32.7335 81.7632 32.865 81.3461 32.8966C80.9291 32.9282 80.5106 32.859 80.126 32.6947C79.7413 32.5305 79.4019 32.2761 79.1363 31.953C78.8707 31.6299 78.6868 31.2476 78.6001 30.8385C78.0467 28.9156 77.8099 26.9155 77.899 24.9166C77.022 25.0051 76.3024 25.958 75.3829 25.3764C76.5013 28.1028 75.3013 30.8752 71.9047 32.6592C69.4402 33.7872 66.7455 34.3218 64.0369 34.2201H63.7254C60.9344 34.2656 58.179 33.5889 55.7266 32.2557ZM81.3174 23.4902C80.5346 24.3454 80.0787 25.4494 80.0299 26.6077C79.9811 27.766 80.3426 28.9044 81.0507 29.8224C82.2208 31.1097 82.7749 31.0097 83.4231 29.3798C83.8431 28.3591 84.0883 27.275 84.1484 26.173C84.2052 25.4587 84.1096 24.7406 83.868 24.0661C83.5231 23.2925 83.0553 22.8948 82.5231 22.8948C82.0605 22.9339 81.6297 23.1466 81.3174 23.4902ZM34.7415 30.8649C34.4434 29.9406 34.2567 28.984 34.1852 28.0155C34.0955 27.05 34.1622 26.0615 34.1622 25.0764C33.7886 25.0767 33.4225 25.181 33.1047 25.3775C32.6024 25.6293 32.1208 25.8821 31.5427 25.4419C31.576 25.3086 31.576 25.1431 31.6346 25.1201C33.9197 24.235 34.3519 22.4373 34.5312 20.2086C34.8197 16.5707 35.4875 12.9672 35.9772 9.33962C36.0795 8.62008 36.3588 8.14077 37.1381 8.29824C37.976 8.45341 37.6737 9.09594 37.5978 9.61663C37.0231 13.6316 36.4714 17.6569 35.8599 21.9833C36.159 21.8216 36.4487 21.6432 36.7277 21.4488C42.6381 16.1385 47.0415 9.89364 48.6024 1.95341C48.7358 1.28905 48.7588 0.481001 49.7404 0.646518C50.8645 0.833875 50.3151 1.69824 50.2082 2.24077C48.7036 9.54997 44.7576 15.4718 39.4645 20.6316C39.0197 21.0523 38.5634 21.45 37.9185 22.0511C41.3484 22.3281 42.23 23.3913 41.8967 26.6752C41.7993 28.7084 40.9439 30.6312 39.499 32.0649C38.9201 32.6526 38.1393 32.9981 37.3151 33.0316C36.7094 32.9976 36.1311 32.7681 35.667 32.3774C35.2029 31.9867 34.8782 31.4559 34.7415 30.8649ZM37.6369 23.4235C35.6093 24.9879 35.7783 29.1235 37.8955 30.4994C38.5174 30.9097 38.93 30.9592 39.2967 30.1787C39.8967 28.8489 40.2447 27.4194 40.3231 25.9626C40.3881 25.2908 40.2726 24.6139 39.9886 24.0017C39.6737 23.312 39.2484 22.9672 38.7415 22.9672C38.3333 22.9943 37.9453 23.1546 37.6369 23.4235ZM46.8323 31.4638C46.507 29.8435 46.4023 28.1868 46.5208 26.5385C46.6791 25.8138 46.558 25.0562 46.1819 24.4169C45.8058 23.7777 45.2024 23.3038 44.4921 23.0902C41.6427 21.7281 41.4059 19.412 43.9909 17.558C46.3046 15.8753 48.9485 14.7017 51.7484 14.1145C54.5484 13.5273 57.441 13.5398 60.2358 14.1511C62.43 14.5833 62.7519 15.6603 61.5955 17.6235C61.5154 17.7879 61.4134 17.9407 61.2921 18.0775C60.7243 18.6753 60.2691 20.0511 59.5461 19.6304C58.5634 19.0557 59.9461 18.3764 60.1795 17.712C60.5576 16.635 60.3795 15.9258 59.3001 15.5166C58.9638 15.366 58.6064 15.268 58.2404 15.2258C54.1867 14.7913 50.0942 15.5474 46.4634 17.4017C43.6335 18.8856 43.622 20.5385 46.4634 22.5132C46.607 21.4385 46.7185 20.5281 46.8737 19.6304C46.8847 19.4106 46.9801 19.2035 47.1401 19.0523C47.3 18.9011 47.5122 18.8175 47.7323 18.8189C48.3783 18.8523 48.2013 19.4086 48.2116 19.8074C48.2475 20.4176 48.2329 21.0296 48.168 21.6373C47.9898 22.9442 48.2461 23.9097 49.7392 24.1982C50.1289 24.2753 50.6955 24.4281 50.4634 25.0028C50.2852 25.4373 49.784 25.2247 49.4841 25.0798C48.2197 24.4925 48.1243 25.1684 48.068 26.1787C48.0997 28.3741 47.9021 30.5669 47.4783 32.7212C46.8519 32.4741 46.9093 31.9396 46.8323 31.4638ZM21.1346 32.189C20.9128 31.5247 21.6829 31.4994 22.0691 31.3362C24.0077 30.5983 25.873 29.6805 27.6404 28.5948C30.2841 26.7867 30.1841 25.3028 27.4185 23.7603C26.8622 23.45 25.5461 23.4396 25.9473 22.5948C26.4277 21.5982 27.4749 22.373 28.1887 22.7385C29.7277 23.5051 31.2634 24.3247 31.5657 26.089C31.5714 26.4866 31.4894 26.8804 31.3255 27.2426C31.1616 27.6048 30.9198 27.9264 30.6174 28.1844C28.2645 30.3362 25.2818 31.3247 22.4139 32.5201C22.2402 32.5931 22.0541 32.6321 21.8657 32.635C21.7116 32.6505 21.5566 32.6153 21.4243 32.5348C21.292 32.4543 21.1895 32.333 21.1323 32.189H21.1346ZM67.9312 28.0028C67.946 27.7278 68.0608 27.4676 68.2541 27.2713C68.4474 27.0751 68.7058 26.9563 68.9806 26.9373C69.087 26.9205 69.1959 26.93 69.2978 26.9651C69.3996 27.0001 69.4913 27.0596 69.5649 27.1384C69.6384 27.2171 69.6915 27.3127 69.7195 27.4167C69.7475 27.5207 69.7495 27.63 69.7254 27.735C69.7007 28.0422 69.5671 28.3306 69.3489 28.5482C69.1306 28.7658 68.8419 28.8985 68.5346 28.9224C67.9875 28.8339 67.8542 28.4684 67.9312 28.0028Z" fill="#0B032D"></path>
  </symbol>
  <symbol fill="none" xmlns="http://www.w3.org/2000/svg" viewBox="0 0 24 25" id="menu-1">
    <g clip-path="url(#clip0_3_4012)">
      <path d="M21 8.27881H3C2.80149 8.2775 2.61149 8.19806 2.47112 8.05769C2.33075 7.91732 2.25131 7.72732 2.25 7.52881C2.25131 7.3303 2.33075 7.1403 2.47112 6.99993C2.61149 6.85956 2.80149 6.78012 3 6.77881H21C21.1985 6.78012 21.3885 6.85956 21.5289 6.99993C21.6693 7.1403 21.7487 7.3303 21.75 7.52881C21.7487 7.72732 21.6693 7.91732 21.5289 8.05769C21.3885 8.19806 21.1985 8.2775 21 8.27881Z" fill="#0B032D"></path>
      <path d="M21 13.2788H3C2.80149 13.2775 2.61149 13.1981 2.47112 13.0577C2.33075 12.9173 2.25131 12.7273 2.25 12.5288C2.25131 12.3303 2.33075 12.1403 2.47112 11.9999C2.61149 11.8596 2.80149 11.7801 3 11.7788H21C21.1985 11.7801 21.3885 11.8596 21.5289 11.9999C21.6693 12.1403 21.7487 12.3303 21.75 12.5288C21.7487 12.7273 21.6693 12.9173 21.5289 13.0577C21.3885 13.1981 21.1985 13.2775 21 13.2788Z" fill="#0B032D"></path>
      <path d="M21 18.2788H3C2.80149 18.2775 2.61149 18.1981 2.47112 18.0577C2.33075 17.9173 2.25131 17.7273 2.25 17.5288C2.25131 17.3303 2.33075 17.1403 2.47112 16.9999C2.61149 16.8596 2.80149 16.7801 3 16.7788H21C21.1985 16.7801 21.3885 16.8596 21.5289 16.9999C21.6693 17.1403 21.7487 17.3303 21.75 17.5288C21.7487 17.7273 21.6693 17.9173 21.5289 18.0577C21.3885 18.1981 21.1985 18.2775 21 18.2788Z" fill="#0B032D"></path>
    </g>
    <defs>
      <clipPath id="clip0_3_4012">
        <rect width="24" height="24" fill="white" transform="translate(0 0.528809)"></rect>
      </clipPath>
    </defs>
  </symbol>
  <symbol fill="none" xmlns="http://www.w3.org/2000/svg" viewBox="0 0 24 25" id="search">
    <g clip-path="url(#clip0_3_3964)">
      <path d="M11.5 22.2788C9.47275 22.2788 7.49101 21.6777 5.80541 20.5514C4.11981 19.4251 2.80604 17.8243 2.03024 15.9513C1.25444 14.0784 1.05146 12.0174 1.44696 10.0291C1.84245 8.04083 2.81867 6.21446 4.25216 4.78097C5.68565 3.34748 7.51202 2.37126 9.50033 1.97576C11.4886 1.58027 13.5496 1.78325 15.4225 2.55905C17.2955 3.33485 18.8963 4.64861 20.0226 6.33422C21.1489 8.01982 21.75 10.0016 21.75 12.0288C21.7463 14.7461 20.6652 17.3511 18.7438 19.2726C16.8223 21.194 14.2173 22.2751 11.5 22.2788ZM11.5 3.27881C9.76942 3.27881 8.0777 3.79199 6.63877 4.75345C5.19984 5.71492 4.07833 7.08148 3.41606 8.68033C2.75379 10.2792 2.58051 12.0385 2.91813 13.7359C3.25575 15.4332 4.08911 16.9923 5.31282 18.216C6.53653 19.4397 8.09563 20.2731 9.79296 20.6107C11.4903 20.9483 13.2496 20.775 14.8485 20.1128C16.4473 19.4505 17.8139 18.329 18.7754 16.8901C19.7368 15.4511 20.25 13.7594 20.25 12.0288C20.2474 9.70898 19.3246 7.48492 17.6843 5.84455C16.0439 4.20418 13.8198 3.28146 11.5 3.27881Z" fill="#FFFFFF"></path>
      <path d="M22.001 23.2818C21.9025 23.2821 21.8049 23.2628 21.7139 23.2251C21.6229 23.1873 21.5403 23.1318 21.471 23.0618L19.471 21.0618C19.3302 20.9212 19.251 20.7304 19.2508 20.5315C19.2506 20.3325 19.3294 20.1416 19.47 20.0008C19.6106 19.8599 19.8013 19.7807 20.0003 19.7805C20.1993 19.7803 20.3902 19.8592 20.531 19.9998L22.531 21.9998C22.6705 22.1409 22.7487 22.3313 22.7487 22.5298C22.7487 22.7282 22.6705 22.9186 22.531 23.0598C22.4619 23.1301 22.3794 23.186 22.2884 23.2241C22.1974 23.2623 22.0997 23.2819 22.001 23.2818Z" fill="#FFFFFF"></path>
    </g>
    <defs>
      <clipPath id="clip0_3_3964">
        <rect width="24" height="24" fill="white" transform="translate(0 0.528809)"></rect>
      </clipPath>
    </defs>
  </symbol>
</svg>